<?xml version="1.0" encoding="UTF-8" standalone="no"?>
<svg
   xmlns:dc="http://purl.org/dc/elements/1.1/"
   xmlns:cc="http://creativecommons.org/ns#"
   xmlns:rdf="http://www.w3.org/1999/02/22-rdf-syntax-ns#"
   xmlns:svg="http://www.w3.org/2000/svg"
   xmlns="http://www.w3.org/2000/svg"
   xmlns:sodipodi="http://sodipodi.sourceforge.net/DTD/sodipodi-0.dtd"
   xmlns:inkscape="http://www.inkscape.org/namespaces/inkscape"
   viewBox="0 0 24 24"
   fill="black"
   width="48px"
   height="48px"
   version="1.1"
   id="svg6"
   sodipodi:docname="alarm-black-48dp.svg"
   inkscape:version="0.92.4 (5da689c313, 2019-01-14)">
  <metadata
     id="metadata12">
    <rdf:RDF>
      <cc:Work
         rdf:about="">
        <dc:format>image/svg+xml</dc:format>
        <dc:type
           rdf:resource="http://purl.org/dc/dcmitype/StillImage" />
        <dc:title></dc:title>
      </cc:Work>
    </rdf:RDF>
  </metadata>
  <defs
     id="defs10" />
  <sodipodi:namedview
     pagecolor="#ffffff"
     bordercolor="#666666"
     borderopacity="1"
     objecttolerance="10"
     gridtolerance="10"
     guidetolerance="10"
     inkscape:pageopacity="0"
     inkscape:pageshadow="2"
     inkscape:window-width="1600"
     inkscape:window-height="837"
     id="namedview8"
     showgrid="false"
     inkscape:zoom="4.9166667"
     inkscape:cx="-14.449616"
     inkscape:cy="24.648263"
     inkscape:window-x="-8"
     inkscape:window-y="100"
     inkscape:window-maximized="1"
     inkscape:current-layer="svg6" />
  <rect
     style="fill:#00afa2;fill-opacity:1;stroke:none;stroke-width:0.5;stroke-miterlimit:4;stroke-dasharray:0.5, 1.00000002;stroke-dashoffset:0;stroke-opacity:1"
     id="rect4533"
     width="23"
     height="23"
     x="0.5"
     y="0.5"
     rx="2"
     ry="2" />
  <path
     d="M0 0h24v24H0z"
     fill="none"
     id="path2" />
  <path
     id="path4"
     d="M 12,19 C 8.13,19 5,15.87 5,12 5,8.13 8.13,5 12,5 c 3.87,0 7,3.13 7,7 0,3.87 -3.13,7 -7,7 z M 12,3 c -4.97,0 -9,4.03 -9,9 0,4.97 4.02,9 9,9 4.97,0 9,-4.03 9,-9 0,-4.97 -4.03,-9 -9,-9 z m 0.5,2.5 H 11 V 13 l 3.563499,2.130908 0.857865,-1.15809 L 12.5,12.25 Z"
     inkscape:connector-curvature="0"
     sodipodi:nodetypes="ssssssssssccccccc"
     style="fill:#ffffff;fill-opacity:1" />
</svg>
